<?xml version="1.0" standalone="no"?><!DOCTYPE svg PUBLIC "-//W3C//DTD SVG 1.1//EN" "http://www.w3.org/Graphics/SVG/1.1/DTD/svg11.dtd"><svg t="1517887888877" class="icon" style="" viewBox="0 0 1024 1024" version="1.1" xmlns="http://www.w3.org/2000/svg" p-id="1036" xmlns:xlink="http://www.w3.org/1999/xlink" width="200" height="200"><defs><style type="text/css"></style></defs><path d="M287 512a28.125 28.125 0 0 1 28.125-28.125h393.75a28.125 28.125 0 1 1 0 56.25h-393.75A28.6875 28.6875 0 0 1 287 512z" fill="#333333" p-id="1037"></path><path d="M483.875 315.125a28.125 28.125 0 1 1 56.25 0v393.75a28.125 28.125 0 1 1-56.25 0z" fill="#333333" p-id="1038"></path><path d="M512 62a450 450 0 1 0 450 450 450 450 0 0 0-450-450z m0 843.75a393.75 393.75 0 1 1 393.75-393.75 393.75 393.75 0 0 1-393.75 393.75z" fill="#333333" p-id="1039"></path></svg>