<?xml version="1.0" standalone="no"?><!DOCTYPE svg PUBLIC "-//W3C//DTD SVG 1.1//EN" "http://www.w3.org/Graphics/SVG/1.1/DTD/svg11.dtd"><svg t="1517887946494" class="icon" style="" viewBox="0 0 1024 1024" version="1.1" xmlns="http://www.w3.org/2000/svg" p-id="1749" xmlns:xlink="http://www.w3.org/1999/xlink" width="200" height="200"><defs><style type="text/css"></style></defs><path d="M399.3 202.6h536.8c11.4 0 20.6-9.2 20.6-20.6 0-11.4-9.2-20.6-20.6-20.6H399.3c-11.4 0-20.6 9.2-20.6 20.6 0 11.4 9.2 20.6 20.6 20.6zM270.3 151h-172c-17.1 0-31 13.9-31 31s13.9 31 31 31h172c17.1 0 31-13.9 31-31s-13.9-31-31-31zM936.1 491.3H399.3c-11.4 0-20.6 9.2-20.6 20.6 0 11.4 9.2 20.6 20.6 20.6h536.8c11.4 0 20.6-9.2 20.6-20.6 0-11.3-9.2-20.6-20.6-20.6zM270.3 481h-172c-17.1 0-31 13.9-31 31s13.9 31 31 31h172c17.1 0 31-13.9 31-31s-13.9-31-31-31zM936.1 821.4H399.3c-11.4 0-20.6 9.2-20.6 20.6s9.2 20.6 20.6 20.6h536.8c11.4 0 20.6-9.2 20.6-20.6s-9.2-20.6-20.6-20.6zM270.3 811.1h-172c-17.1 0-31 13.9-31 31s13.9 31 31 31h172c17.1 0 31-13.9 31-31-0.1-17.2-13.9-31-31-31z" fill="#3E3A39" p-id="1750"></path></svg>