<?xml version="1.0" standalone="no"?><!DOCTYPE svg PUBLIC "-//W3C//DTD SVG 1.1//EN" "http://www.w3.org/Graphics/SVG/1.1/DTD/svg11.dtd"><svg t="1517887896637" class="icon" style="" viewBox="0 0 1024 1024" version="1.1" xmlns="http://www.w3.org/2000/svg" p-id="1156" xmlns:xlink="http://www.w3.org/1999/xlink" width="200" height="200"><defs><style type="text/css"></style></defs><path d="M520.66666667 49.33333334C272.26666667 49.33333334 70.66666667 250.93333334 70.66666667 499.33333334S272.26666667 949.33333334 520.66666667 949.33333334 970.66666667 747.73333334 970.66666667 499.33333334 769.06666667 49.33333334 520.66666667 49.33333334zM520.66666667 889.33333334C305.26666667 889.33333334 130.66666667 714.73333334 130.66666667 499.33333334S305.26666667 109.33333334 520.66666667 109.33333334C736.06666667 109.33333334 910.66666667 283.93333334 910.66666667 499.33333334S736.06666667 889.33333334 520.66666667 889.33333334zM562.06666667 496.33333334l157.8-156c12-12 12-31.2 0-42.6-12-12-31.2-12-43.2 0L518.86666667 452.53333334 364.06666667 297.13333334c-12-12-31.2-12-42.6 0-12 12-12 31.2 0 42.6l154.2 155.4-163.8 162c-12 12-12 31.2 0 42.6 12 12 31.2 12 43.2 0l163.2-161.4 160.8 161.4c12 12 31.2 12 42.6 0 12-12 12-31.2 0-42.6L562.06666667 496.33333334z" p-id="1157"></path></svg>