<?xml version="1.0" standalone="no"?><!DOCTYPE svg PUBLIC "-//W3C//DTD SVG 1.1//EN" "http://www.w3.org/Graphics/SVG/1.1/DTD/svg11.dtd"><svg t="1523515885571" class="icon" style="" viewBox="0 0 1024 1024" version="1.1" xmlns="http://www.w3.org/2000/svg" p-id="1729" xmlns:xlink="http://www.w3.org/1999/xlink" width="200" height="200"><defs><style type="text/css"></style></defs><path d="M224.79999969 723.00000031c-27.36 0-52.15999969-22.39999969-52.15999969-49.60000031s22.39999969-49.72000031 52.2-49.72000031c29.92000031 0 52.39999969 22.39999969 52.39999969 49.68s-24.88000031 49.60000031-52.2 49.60000031z m640.48000031-270.52000031c-5.4-39.67999969-30-72-62.4-96.79999969l-12.6-10.00000031-10.15999969 12.40000031c-19.75999969 22.39999969-27.6 62.11999969-25.2 91.8 2.4 22.48000031 9.6 44.80000031 22.15999969 62.16-10.15999969 5.20000031-22.72000031 10.00000031-32.4 15.07999969a211.60000031 211.60000031 0 0 1-67.2 10.00000031H35.88000031l-2.4 14.79999938a279.19999969 279.19999969 0 0 0 22.47999938 141.6l9.76000031 17.4v2.4c60 99.31999969 166.8 144 283.12000031 144 223.75999969 0 407.28-96.79999969 494.28-305.31999938 57 2.47999969 114.55999969-12.40000031 141.6-67.04000062l7.2-12.39999938-12-7.48000031c-32.4-19.75999969-76.8-22.39999969-114-12.40000031l-0.72 0.08000062z m-320.32000031-39.67999969h-97.11999938v96.79999969h97.2V412.71999969l-0.08000062 0.12z m0-121.72000031h-97.11999938v96.79999969h97.2V291.2l-0.08000062-0.12z m0-124.15999969h-97.11999938v96.79999969h97.2v-96.79999969h-0.08000062z m118.8 245.88H567.2v96.79999969h96.79999969V412.71999969l-0.27999938 0.12z m-359.91999938 0H207.32v96.79999969h96.88000031V412.71999969l-0.40000031 0.12z m121.2 0h-96v96.79999969H425.6V412.71999969l-0.6 0.12z m-241.2 0H87.99999969v96.79999969h97.12000031V412.71999969l-1.2 0.12z m241.2-121.72000031h-96v96.79999969H425.6V291.2l-0.6-0.12z m-121.8 0H207.48000031v96.79999969H303.99999969V291.2l-0.63999938-0.12z" fill="" p-id="1730"></path></svg>