<?xml version="1.0" standalone="no"?><!DOCTYPE svg PUBLIC "-//W3C//DTD SVG 1.1//EN" "http://www.w3.org/Graphics/SVG/1.1/DTD/svg11.dtd"><svg t="1517887934640" class="icon" style="" viewBox="0 0 1024 1024" version="1.1" xmlns="http://www.w3.org/2000/svg" p-id="1631" xmlns:xlink="http://www.w3.org/1999/xlink" width="200" height="200"><defs><style type="text/css"></style></defs><path d="M596.19555555 75.09333333H434.40355555l-80.896 140.51555556L434.40355555 356.12444445H596.19555555l80.896-140.51555556L596.19555555 75.09333333z m-27.42044444 233.24444445H461.93777778l-53.47555556-92.72888889 53.47555556-92.72888889h106.83733333l53.36177778 92.72888889-53.36177778 92.72888889zM865.62133333 520.98844445H703.71555555l-80.896 140.51555555 80.896 140.51555555H863.57333333l60.87111112-102.05866666 22.18666666-38.45688889-81.00977778-140.51555555z m17.74933334 154.51022222l-46.87644445 78.62044444h-105.24444444l-53.36177778-92.72888889 53.36177778-92.72888889h106.83733333l53.36177778 92.72888889-8.07822222 14.10844445zM376.49066667 699.84711111l22.18666666-38.45688889-80.896-140.51555555H155.87555555l-80.896 140.51555555L155.87555555 801.90577778h159.85777778l60.75733334-102.05866667z m-193.08088889 54.272l-53.36177778-92.72888889 53.36177778-92.72888889H290.13333333l53.36177778 92.72888889-8.07822222 14.10844445-46.87644444 78.62044444h-105.13066667zM600.17777778 759.12533333c-3.64088889-6.25777778-11.03644445-9.10222222-17.97688889-6.94044444-22.98311111 7.168-47.21777778 10.80888889-72.02133334 10.80888889-24.46222222 0-48.24177778-3.52711111-70.88355555-10.35377778-6.82666667-2.048-14.10844445 0.68266667-17.74933333 6.82666667-5.12 8.64711111-0.91022222 19.79733333 8.64711111 22.75555555 25.71377778 7.85066667 52.56533333 11.83288889 79.98577777 11.83288889 27.87555555 0 55.06844445-4.096 81.23733334-12.288 9.44355555-3.072 13.76711111-13.99466667 8.76088889-22.64177778zM691.31377778 886.784c-4.32355555-7.168-13.53955555-9.55733333-20.82133333-5.68888889-49.72088889 23.66577778-104.33422222 36.40888889-160.3128889 36.40888889-56.43377778 0-111.38844445-12.85688889-161.2231111-36.75022222-7.39555555-4.55111111-17.06666667-2.16177778-21.39022223 5.46133333l-0.34133333 0.56888889c-4.096 7.168-1.59288889 16.15644445 5.46133333 20.59377778l0.11377778 0.11377777 5.46133333 2.73066667c54.04444445 25.48622222 111.84355555 38.34311111 171.91822222 38.34311111 59.05066667 0 116.05333333-12.51555555 169.30133334-37.20533333 2.16177778-1.024 4.32355555-2.048 6.59911111-3.072 7.28177778-4.55111111 9.67111111-14.10844445 5.23377778-21.504zM690.51733333 313.45777778c-3.75466667 6.144-2.61688889 14.10844445 2.61688889 19.11466667 17.29422222 16.72533333 32.19911111 36.18133333 44.14577778 58.02666666 11.83288889 21.39022222 20.13866667 44.032 25.03111111 67.24266667 1.47911111 6.94044445 7.39555555 12.06044445 14.56355556 12.288 10.01244445 0.34133333 17.74933333-8.76088889 15.70133333-18.54577778-5.57511111-26.39644445-15.01866667-51.88266667-28.21688889-75.88977778-13.42577778-24.46222222-30.15111111-46.30755555-49.94844444-65.42222222-7.168-6.82666667-18.77333333-5.23377778-23.89333334 3.18577778zM758.10133333 171.91822222c-4.096 7.28177778-1.82044445 16.49777778 5.12 20.93511111 44.71466667 32.19911111 82.14755555 74.06933333 109.11288889 123.10755556 27.19288889 49.49333333 42.43911111 103.99288889 45.62488889 159.28888889-0.45511111 8.64711111 6.37155555 16.04266667 15.13244444 16.15644444h0.68266667c8.30577778 0.11377778 14.79111111-6.37155555 15.36-14.67733333v-0.11377778l-0.34133333-6.144c-3.75466667-59.73333333-20.36622222-116.736-49.37955556-169.41511111-28.44444445-51.88266667-66.90133333-95.80088889-114.23288888-130.73066667-1.93422222-1.47911111-3.86844445-2.84444445-5.91644445-4.20977778-7.28177778-4.20977778-16.83911111-1.70666667-21.16266667 5.80266667zM245.07733333 468.30933333c7.168-0.79644445 12.74311111-6.48533333 13.65333334-13.76711111 2.73066667-24.00711111 8.98844445-47.67288889 19.00088888-70.42844444 9.78488889-22.41422222 22.528-42.89422222 37.888-60.87111111 4.55111111-5.46133333 5.00622222-13.19822222 0.91022223-19.00088889-5.80266667-8.192-17.74933333-8.76088889-24.23466667-1.13777778-17.52177778 20.48-31.85777778 43.46311111-42.89422222 68.608-11.15022222 25.6-18.31822222 52.224-21.27644444 79.53066667-1.25155555 9.89866667 7.05422222 18.20444445 16.95288888 17.06666666zM94.09422222 500.84977778c8.192-1.13777778 14.10844445-8.53333333 13.53955556-16.83911111-1.70666667-55.06844445 8.53333333-110.36444445 30.94755555-161.792 22.64177778-51.76888889 56.32-97.05244445 98.19022222-133.23377778 7.168-5.00622222 8.76088889-14.79111111 3.6408889-21.84533334l-0.34133334-0.56888888c-4.89244445-6.71288889-14.10844445-7.85066667-20.93511111-3.29955556l-0.11377778 0.11377778c-1.59288889 1.36533333-3.072 2.61688889-4.66488889 3.98222222-44.94222222 39.36711111-79.872 87.38133333-103.99288888 142.44977778-23.66577778 54.15822222-35.04355555 111.50222222-33.792 170.32533333 0 2.38933333 0.11377778 4.89244445 0.22755555 7.28177778 0.91022222 8.53333333 8.76088889 14.56355555 17.29422222 13.42577778z" p-id="1632"></path></svg>