<?xml version="1.0" standalone="no"?><!DOCTYPE svg PUBLIC "-//W3C//DTD SVG 1.1//EN" "http://www.w3.org/Graphics/SVG/1.1/DTD/svg11.dtd"><svg t="1528120667442" class="icon" style="" viewBox="0 0 1024 1024" version="1.1" xmlns="http://www.w3.org/2000/svg" p-id="8827" xmlns:xlink="http://www.w3.org/1999/xlink" width="200" height="200"><defs><style type="text/css"></style></defs><path d="M667.460371 379.355663 655.495104 367.670548 511.934572 499.240988 414.086236 437.443519 413.02007 436.081342 412.501212 436.442475 411.697841 435.935096 410.208945 438.037921 271.517229 534.569144 288.941939 556.907395 413.270394 470.307638 514.155221 533.961589 515.160163 534.939314 515.382177 534.735745 515.937446 535.086097 517.687898 532.621586 675.819354 387.627848 706.681037 418.169064 719.517229 330.221741 625.856589 338.183885 667.460371 379.355663ZM413.252408 520.858378 279.762648 612.785969 279.762648 714.221741 413.48644 714.221741 413.252408 520.858378ZM564.557496 549.462204 522.548593 590.300936 447.558577 540.468298 447.558577 714.221741 564.868975 714.221741 564.557496 549.462204ZM716.717312 420.968644 599.640948 530.588876 599.640948 714.221741 716.949088 714.221741 716.717312 420.968644Z" p-id="8828"></path><path d="M147.067021 529.172349 149.360116 351.867323C149.494294 341.492547 157.738271 327.433416 166.636197 322.327559L325.226409 231.324454 485.824414 144.340918C495.058785 139.3391 511.822308 139.346057 521.043836 144.340918L681.938093 231.489654 840.232051 322.327559C849.167955 327.455208 857.373523 341.459188 857.508134 351.867323L859.801229 529.172349 857.508134 706.12096C857.373958 716.495738 849.129978 730.554867 840.232051 735.660723L681.641843 826.663827 521.043836 913.647366C511.809465 918.649184 495.045941 918.642227 485.824414 913.647366L324.930156 826.49863 166.636197 735.660723C157.700293 730.533075 149.494725 716.529094 149.360116 706.12096L147.067021 528.815933 147.067021 529.172349 147.067021 529.172349 147.067021 529.172349ZM119.434125 529.172349 121.72722 706.477376C121.98773 726.62032 135.449311 749.594438 152.868077 759.589773L311.458289 850.592877 472.648801 937.90681C490.08478 947.351046 516.76303 947.362118 534.219448 937.90681L695.113709 850.758074 854.000173 759.589773C871.37801 749.617926 884.880909 726.590323 885.14103 706.477376L887.434125 529.172349 885.14103 351.510906C884.880518 331.367964 871.418938 308.393843 854.000173 298.398511L695.409958 207.395407 534.219448 120.081471C516.78347 110.637235 490.105219 110.626163 472.648801 120.081471L311.754542 207.230207 152.868077 298.398511C135.490241 308.370356 121.987342 331.39796 121.72722 351.510906L119.434125 528.815933 119.434125 529.172349 119.434125 529.172349 119.434125 529.172349Z" p-id="8829"></path></svg>