<?xml version="1.0" standalone="no"?><!DOCTYPE svg PUBLIC "-//W3C//DTD SVG 1.1//EN" "http://www.w3.org/Graphics/SVG/1.1/DTD/svg11.dtd"><svg t="1523152343874" class="icon" style="" viewBox="0 0 1024 1024" version="1.1" xmlns="http://www.w3.org/2000/svg" p-id="5325" xmlns:xlink="http://www.w3.org/1999/xlink" width="200" height="200"><defs><style type="text/css"></style></defs><path d="M682.657798 133.145439l60.309574-60.309574c16.661472-16.661472 43.675732-16.661472 60.337203 0L923.241178 192.773492c16.661472 16.661472 16.661472 43.674709 0 60.337203l-60.309574 60.309574L682.657798 133.145439z m-464.683345 468.579072l431.06262-431.06262L829.310879 350.935698 398.24826 781.998317l-212.928531 59.739593c-11.343349 3.182482-23.119557-3.433192-26.302039-14.776542a21.332864 21.332864 0 0 1-0.024559-11.435447l58.981322-213.80141zM106.685811 874.627994h810.627355c11.781324 0 21.331841 9.550517 21.331841 21.331841v42.664706c0 11.781324-9.550517 21.331841-21.331841 21.331841H106.685811c-11.781324 0-21.331841-9.550517-21.331841-21.331841v-42.664706c0-11.781324 9.550517-21.331841 21.331841-21.331841z" p-id="5326" fill="#ee1a48"></path></svg>