<?xml version="1.0" standalone="no"?><!DOCTYPE svg PUBLIC "-//W3C//DTD SVG 1.1//EN" "http://www.w3.org/Graphics/SVG/1.1/DTD/svg11.dtd"><svg t="1526017587697" class="icon" style="" viewBox="0 0 1024 1024" version="1.1" xmlns="http://www.w3.org/2000/svg" p-id="2110" xmlns:xlink="http://www.w3.org/1999/xlink" width="200" height="200"><defs><style type="text/css"></style></defs><path d="M736 960H288a96 96 0 0 1-96-96V224a32 32 0 0 1 32-32h576a32 32 0 0 1 32 32v640a96 96 0 0 1-96 96zM256 256v608a32 32 0 0 0 32 32h448a32 32 0 0 0 32-32V256z" p-id="2111"></path><path d="M864 256H160a32 32 0 0 1 0-64h704a32 32 0 0 1 0 64zM384 720a32 32 0 0 1-32-32v-256a32 32 0 0 1 64 0v256a32 32 0 0 1-32 32zM512 720a32 32 0 0 1-32-32v-256a32 32 0 0 1 64 0v256a32 32 0 0 1-32 32zM640 720a32 32 0 0 1-32-32v-256a32 32 0 0 1 64 0v256a32 32 0 0 1-32 32z" p-id="2112"></path><path d="M704 256H320a32 32 0 0 1-25.28-12.16A32 32 0 0 1 288 216.32l32-128A32 32 0 0 1 352 64h320a32 32 0 0 1 32 24.32l32 128a32 32 0 0 1-5.76 27.52A32 32 0 0 1 704 256zM360.96 192h302.08l-16-64h-270.08z" p-id="2113"></path></svg>