<?xml version="1.0" standalone="no"?><!DOCTYPE svg PUBLIC "-//W3C//DTD SVG 1.1//EN" "http://www.w3.org/Graphics/SVG/1.1/DTD/svg11.dtd"><svg t="1523515238802" class="icon" style="" viewBox="0 0 1024 1024" version="1.1" xmlns="http://www.w3.org/2000/svg" p-id="1670" xmlns:xlink="http://www.w3.org/1999/xlink" width="200" height="200"><defs><style type="text/css"></style></defs><path d="M455.75 252.17857156q-5.89285687 0.53571469-8.30357156 5.625T442.89285687 262.89285687q-2.67857156 0.53571469-2.67857156-2.67857156 0-6.42857156 10.17857156-8.03571375h5.35714313z m46.60714313 7.5q-2.14285688 0.53571469-6.16071469-3.48214312T486.82142844 253.78571469q12.85714313-5.89285687 17.14285687 1.07142844 1.60714312 3.21428531-1.60714218 4.82142843zM314.32142844 488.42857156q-2.14285688-0.53571469-3.21428532 1.60714313t-2.41071468 6.69642843T305.75 503.96428531t-5.35714313 6.96428625q-5.35714313 5.89285687-0.53571375 6.42857157 2.14285688 0.53571469 6.69642844-3.75t6.69642844-9.64285782q0.53571469-1.60714312 1.07142844-3.75t1.07142843-3.21428531 0.80357157-2.41071469 0.26785687-2.14285687v-1.60714313l-0.53571375-1.33928531-1.60714312-1.07142844z m458.03571469 192.32142844q0-9.64285687-29.46428626-22.5 2.14285688-8.03571469 4.01785782-14.73214313t2.67857062-13.92857156 1.60714313-11.51785687 0.26785687-12.05357157-0.53571375-10.44642843-1.875-11.78571375-2.14285687-10.98214313-2.67857157-13.39285687-2.94642843-14.19642938q-5.35714313-25.71428531-25.17857157-55.17857062t-38.57142843-40.17857157q12.85714313 10.71428531 30.53571375 44.46428532 46.60714313 86.78571469 28.92857156 148.92857156-5.89285687 21.42857156-26.78571469 22.5-16.60714313 2.14285688-20.625-9.91071469t-4.28571375-44.73214218-6.16071469-57.32142844q-4.82142844-20.89285687-10.44642843-36.96428625t-10.44642844-24.375-8.30357156-13.125-6.96428532-8.03571375-4.01785781-3.75q-7.5-33.21428531-16.60714219-55.17857156t-15.80357156-30-12.58928625-17.67857157-8.03571375-21.42857156q-2.14285688-11.25 3.21428532-28.66071469t2.41071468-26.51785687-23.83928625-13.39285688q-8.03571469-1.60714312-23.83928531-9.64285687T524.85714313 256.46428531q-4.28571469-0.53571469-5.89285782-13.92857062t4.28571469-27.32142938 19.28571469-14.46428531q19.82142844-1.60714312 27.32142843 16.07142844t2.14285688 31.07142843q-5.89285687 10.17857156-1.07142844 14.19642844t16.07142844 0.26785781q6.96428531-2.14285688 6.96428531-19.28571468v-19.82142844q-2.67857156-16.07142844-7.23214219-26.78571469t-11.24999999-16.33928531-12.58928626-8.03571469-14.46428531-4.01785687q-57.32142844 4.28571469-47.67857156 71.78571468 0 8.03571469-0.53571469 8.03571375-4.82142844-4.82142844-15.80357062-5.625t-17.67857157 0.26785782-8.30357156-2.67857157q0.53571469-30.53571469-8.57142844-48.21428625t-24.10714312-18.21428531q-14.46428531-0.53571469-22.23214313 14.73214313T394.67857156 220.03571469q-0.53571469 8.03571469 1.875 19.82142844t6.96428532 20.08928531T411.82142844 267.17857156q5.35714313-1.60714312 8.57142843-7.5 2.14285688-4.82142844-3.75-4.28571468-3.75 0-8.30357156-7.76785688T403.25 229.67857156q-0.53571469-11.78571469 4.82142844-19.82142844t18.21428625-7.5q9.10714313 0 14.46428531 11.25t5.08928531 20.89285688-0.80357062 11.78571469q-11.78571469 8.03571469-16.60714313 15.53571375-4.28571469 6.42857156-14.73214312 12.58928625T402.71428531 281.10714312q-6.96428531 7.5-8.30357062 14.46428532t4.01785687 9.64285687q7.5 4.28571469 13.39285688 10.44642938t8.57142844 10.17857062 9.91071468 6.96428625T449.32142844 336.28571469q25.17857156 1.07142844 54.64285687-8.03571469 1.07142844-0.53571469 12.32142938-3.75t18.48214219-5.625 15.80357156-6.96428531 11.25-9.375q4.82142844-7.5 10.71428625-4.28571469 2.67857156 1.60714312 3.48214218 4.55357156t-1.60714218 6.42857156T565.57142844 314.32142844q-10.71428531 3.21428531-30.26785688 11.51785687T510.92857156 336.28571469q-23.57142844 10.17857156-37.5 12.32142843-13.39285687 2.67857156-42.32142843-1.07142843-5.35714313-1.07142844-4.82142844 1.07142843t9.10714219 10.17857157q13.39285687 12.32142844 35.89285781 11.78571375 9.10714313-0.53571469 19.28571375-3.75t19.28571469-7.5 17.94642843-9.375 16.07142844-9.10714313 13.125-6.42857062 9.375-1.33928625 4.55357156 5.89285687q0 1.07142844-0.53571468 2.41071469t-2.14285688 2.67857156-3.21428531 2.41071375-4.55357156 2.67857156-4.82142844 2.41071469-5.35714313 2.67857156-5.08928625 2.41071375q-15 7.5-36.16071375 23.57142844T473.42857156 403.25t-26.25 0.53571469q-11.25-5.89285687-33.75-39.10714313-11.78571469-16.60714313-13.39285687-11.78571469-0.53571469 1.60714312-0.53571469 5.35714313 0 13.39285687-8.03571469 30.26785687T375.66071469 418.25t-11.25 31.07142844 6.16071375 33.75q-12.32142844 3.21428531-33.48214313 48.21428625T311.64285688 606.82142844q-1.07142844 9.64285687-0.80357157 36.96428625t-2.94642844 31.60714218q-4.28571469 12.85714313-15.53571375 1.60714313-17.14285687-16.60714313-19.28571468-50.35714313-1.07142844-15 2.14285687-30 2.14285688-10.17857156-0.53571375-9.64285687-1.07142844 0.53571469-2.14285687 2.67857156-19.28571469 34.82142844 5.35714219 88.92857156 2.67857156 6.42857156 13.39285781 15t12.85714219 10.71428532q10.71428531 12.32142844 55.71428625 48.48214312t49.82142843 40.98214313q8.57142844 8.03571469 9.375 20.35714218t-7.5 23.03571469-24.375 12.32142844q4.28571469 8.03571469 15.53571375 23.83928531t15 28.92857156 3.75 37.76785782q24.64285687-12.85714313 3.75-49.28571469-2.14285688-4.28571469-5.625-8.57142844t-5.08928531-6.42857156-1.07142844-3.21428531q1.60714312-2.67857156 6.96428532-5.08928625t10.71428625 1.33928625q24.64285687 27.85714313 88.92857156 19.28571375 71.25-8.03571469 94.82142844-46.60714313 12.32142844-20.35714313 18.21428531-16.07142844 6.42857156 3.21428531 5.35714312 27.85714313-0.53571469 13.39285687-12.32142844 49.28571469-4.82142844 12.32142844-3.21428625 20.08928531t12.85714313 8.30357156q1.60714312-10.17857156 7.76785687-41.25t7.23214313-48.21428625q1.07142844-11.25-3.48214313-39.375t-4.01785687-51.96428531 12.32142844-37.76785688q8.03571469-9.64285687 27.32142844-9.64285781 0.53571469-19.82142844 18.48214312-28.39285687t38.83928531-5.625 32.14285781 12.05357156zM435.92857156 237.71428531q1.60714312-9.10714313-1.33928625-16.07142844T428.42857156 213.60714312q-4.82142844-1.07142844-4.82142843 3.75000001 1.07142844 2.67857156 2.67857156 3.21428531 5.35714313 0 3.75 8.03571469-1.60714312 10.71428531 4.28571375 10.71428531 1.60714312 0 1.60714312-1.60714313z m224.46428532 105.53571469q-1.07142844-4.28571469-3.48214219-6.16071469t-6.96428625-2.67857062-7.76785688-2.94642938q-2.67857156-1.60714312-5.08928625-4.28571375t-3.75-4.28571469-2.94642843-3.48214218-2.14285688-2.14285782-2.14285687 0.80357157q-7.5 8.57142844 3.75 23.30357156t20.89285687 16.875q4.82142844 0.53571469 7.76785688-4.28571469t1.875-10.71428531zM565.03571469 229.14285688q0-5.89285687-2.67857156-10.44642844T556.46428531 212t-4.82142844-1.60714312q-3.21428531 0-4.28571375 1.07142843t0 2.14285782 2.67857157 1.60714218q7.5 2.14285688 9.64285687 16.60714313 0 1.60714312 4.28571375-1.07142844 1.07142844-1.07142844 1.07142938-1.60714313z m28.92857062-124.82142844q0-1.07142844-1.33928531-2.67857156t-4.82142844-3.75-5.08928625-3.21428532q-8.03571469-8.03571469-12.85714218-8.03571468-4.82142844 0.53571469-6.16071469 4.01785781t-0.53571375 6.96428531-0.26785781 6.69642844q-0.53571469 2.14285688-3.21428532 5.625t-3.21428625 4.82142844 1.60714313 4.55357156q2.14285688 1.60714312 4.28571469 0t5.89285687-4.82142844 8.03571469-4.82142844q0.53571469-0.53571469 4.82142844-0.53571468t8.03571375-1.07142844 4.82142843-3.75z m302.67857157 718.39285687q10.71428531 6.42857156 16.60714312 13.125t6.42857156 12.85714313-1.33928625 12.05357156-8.30357062 11.78571469-12.58928625 10.44642844-16.07142844 9.91071375-16.875 8.83928625-17.14285687 8.30357156-14.46428625 6.96428531q-20.35714313 10.17857156-45.80357157 30t-40.44642843 34.28571469q-9.10714313 8.57142844-36.42857157 10.44642844t-47.67857062-7.76785782q-9.64285687-4.82142844-15.80357156-12.58928531T637.89285688 957.71428531t-11.78571375-10.44642844-25.17857157-5.08928531q-23.57142844-0.53571469-69.64285687-0.53571469-10.17857156 0-30.53571469 0.80357157t-31.07142844 1.33928625q-23.57142844 0.53571469-42.58928625 8.03571375t-28.66071375 16.07142843-23.30357156 15.26785782T346.46428531 989.32142844q-15.53571469-0.53571469-59.46428531-16.60714313t-78.21428531-23.03571375q-10.17857156-2.14285688-27.32142938-5.08928625t-26.78571375-4.82142843-21.16071469-5.08928532-17.94642843-7.76785687-9.10714313-10.44642938q-5.35714313-12.32142844 3.75-35.625t9.64285781-29.19642843q0.53571469-8.57142844-2.14285781-21.42857157t-5.35714219-22.76785687-2.41071468-19.55357156 5.625-14.46428532q7.5-6.42857156 30.53571468-7.5t32.14285688-6.42857156q16.07142844-9.64285687 22.5-18.75t6.42857156-27.32142844q11.25 39.10714313-17.14285687 56.78571375-17.14285687 10.71428531-44.46428625 8.03571469-18.21428531-1.60714312-23.03571375 5.35714313-6.96428531 8.03571469 2.67857062 30.53571375 1.07142844 3.21428531 4.28571469 9.64285781t4.55357156 9.64285687 2.41071375 9.10714313 0.53571469 11.78571375q0 8.03571469-9.10714313 26.25t-7.5 25.71428625q1.60714312 9.10714313 19.82142844 13.92857062 10.71428531 3.21428531 45.26785781 9.91071469T238.78571469 941.10714312q12.85714313 3.21428531 39.64285687 11.78571376t44.19642844 12.32142843 29.73214313 2.14285782q23.03571469-3.21428531 34.55357156-15t12.32142844-25.71428625-4.01785782-31.33928532-10.17857062-27.85714312-10.71428625-19.55357156q-64.82142844-101.78571469-90.53571375-129.64285688-36.42857156-39.64285687-60.53571469-21.42857156-5.89285687 4.82142844-8.03571469-8.03571375-1.60714312-8.57142844-1.07142843-20.35714313 0.53571469-15.53571469 5.35714312-27.85714312t12.85714313-25.17857156 11.78571375-22.5q4.28571469-11.25 14.19642843-38.57142844t15.80357157-41.78571375 16.07142843-32.67857156 20.89285782-28.92857157q58.92857156-76.60714313 66.42857156-104.46428625-6.42857156-60-8.57142938-166.07142844-1.07142844-48.21428531 12.85714313-81.16071374T438.60714313 43.25Q459.5 32 494.32142844 32q28.39285687-0.53571469 56.78571469 7.23214313T598.78571469 61.46428531q30.53571469 22.5 49.01785687 65.08928625T663.60714312 205.57142844q-2.67857156 50.89285687 16.07142844 114.64285687 18.21428531 60.53571469 71.25 116.78571469 29.46428531 31.60714313 53.30357157 87.32142844t31.875 102.32142844q4.28571469 26.25 2.67857156 45.26785781t-6.42857156 29.73214218-10.71428625 11.78571469q-5.35714313 1.07142844-12.58928532 10.17857156t-14.46428625 19.01785688-21.69642843 17.94642844-32.67857157 7.5q-9.64285687-0.53571469-16.875-2.67857157t-12.05357062-7.23214218-7.23214313-8.30357157-6.16071468-10.98214312-4.82142844-10.44642844q-11.78571469-19.82142844-21.96428532-16.07142844t-15 26.25 3.75 51.96428532q10.71428531 37.5 0.53571375 104.46428625-5.35714313 34.82142844 9.64285782 53.83928531t39.10714218 17.67857156 45.53571469-19.01785687q31.60714313-26.25 47.94642844-35.625T858.07142844 889.14285688q28.39285687-9.64285687 41.25-19.55357157t9.91071469-18.48214219-13.39285782-15.26785781-27.58928531-12.58928531q-17.67857156-5.89285687-26.51785687-25.71428531t-8.03571469-38.83928625 8.30357156-25.44642844q0.53571469 16.60714313 4.28571469 30.26785687t7.76785687 21.69642844 10.98214313 15.26785781 11.25 10.17857157 11.51785687 6.96428531 8.83928532 5.08928531z" p-id="1671"></path></svg>