<?xml version="1.0" standalone="no"?><!DOCTYPE svg PUBLIC "-//W3C//DTD SVG 1.1//EN" "http://www.w3.org/Graphics/SVG/1.1/DTD/svg11.dtd"><svg t="1527770800405" class="icon" style="" viewBox="0 0 1024 1024" version="1.1" xmlns="http://www.w3.org/2000/svg" p-id="14253" xmlns:xlink="http://www.w3.org/1999/xlink" width="200" height="200"><defs><style type="text/css"></style></defs><path d="M961.42649725 512.10310279l-423.40040943 423.66258505c-18.98416787 18.98416787-49.75887523 18.98416787-68.7283141 0-18.98269497-18.97091179-18.98416787-49.74414626 0-68.72978702l355.05799427-355.06683165-356.79748548-356.79748551c-18.97680337-18.96943889-18.97680337-49.74561915 0-68.72831412 18.98269497-18.97680337 49.75151074-18.97680337 68.72831412 0l39.75348672 39.75348675-0.26806722 0.24597377 385.65448112 385.66037273zM572.63474578 512.10310279l-423.40777392 423.66258505c-18.98416787 18.98416787-49.75887523 18.98416787-68.7283141 0-18.98269497-18.97091179-18.98416787-49.74414626 0-68.72978702l355.05799427-355.06683165-356.7974855-356.79748551c-18.97680337-18.96943889-18.97680337-49.74561915 0-68.72831412 18.98269497-18.97680337 49.75887523-18.97680337 68.72684124 0l39.76085121 39.75348675-0.27395882 0.24744669 385.66331851 385.66037269zM572.63474578 512.10310279z" p-id="14254"></path></svg>