<?xml version="1.0" standalone="no"?><!DOCTYPE svg PUBLIC "-//W3C//DTD SVG 1.1//EN" "http://www.w3.org/Graphics/SVG/1.1/DTD/svg11.dtd"><svg t="1523516403403" class="icon" style="" viewBox="0 0 1024 1024" version="1.1" xmlns="http://www.w3.org/2000/svg" p-id="1819" xmlns:xlink="http://www.w3.org/1999/xlink" width="200" height="200"><defs><style type="text/css"></style></defs><path d="M911.85834667 226.84444445h-800.99555556c-20.10794667 0-36.40888889 16.30094222-36.40888889 36.40888889v508.65379555c0 20.10794667 16.30094222 36.40888889 36.40888889 36.40888889h145.41824c20.10794667 0 36.40888889-16.30094222 36.40888889-36.40888889V741.38737778h48.60359111v64.14222222h72.81777778V741.38737778h59.10414222v64.14222222h72.81777778V741.38737778h59.10414222v64.14222222h72.81777778V741.38737778h51.89176889v30.51861334c0 20.10794667 16.30094222 36.40888889 36.40888889 36.40888888h145.60256c20.10794667 0 36.40888889-16.30094222 36.40888888-36.40888888V263.25333334c0-20.10794667-16.30208-36.40888889-36.40888888-36.40888889z m-36.40888889 336.02332444h-38.18268445c-20.10794667 0-36.40888889 16.30094222-36.40888888 36.40888889s16.30094222 36.40888889 36.40888888 36.40888889h38.18268445v99.81269333h-72.78478223V704.97848889c0-20.10794667-16.30094222-36.40888889-36.40888888-36.40888889H256.27989333c-20.10794667 0-36.40888889 16.30094222-36.40888888 36.40888889v30.51861333h-72.60046223v-99.81269333h37.04490667c20.10794667 0 36.40888889-16.30094222 36.40888889-36.40888889s-16.30094222-36.40888889-36.40888889-36.40888888h-37.04490667V299.66222222h728.17777778v263.20554667z" fill="" p-id="1820"></path><path d="M221.27160889 358.18040889h91.33966222v159.28888889h-91.33966222zM385.58151111 358.18040889h91.33966222v159.28888889H385.58151111zM549.89027555 358.18040889h91.33966223v159.28888889h-91.33966223zM714.20017778 358.18040889h91.33966222v159.28888889h-91.33966222z" fill="" p-id="1821"></path></svg>