<?xml version="1.0" standalone="no"?><!DOCTYPE svg PUBLIC "-//W3C//DTD SVG 1.1//EN" "http://www.w3.org/Graphics/SVG/1.1/DTD/svg11.dtd"><svg t="1523517582405" class="icon" style="" viewBox="0 0 1024 1024" version="1.1" xmlns="http://www.w3.org/2000/svg" p-id="1848" xmlns:xlink="http://www.w3.org/1999/xlink" width="200" height="200"><defs><style type="text/css"></style></defs><path d="M964.34520064 582.57294222c-20.55674994-26.37710222-82.80837689-67.66705778-103.95232939-121.58293333-21.14278741-53.91473778-91.61408513-87.86375111-105.70811164-76.62364444 0 0-8.22316601 4.36110222-21.14278742 6.656-12.91496107 2.29717333-142.06224157-4.52266667-156.80055978-5.56032 0 0-69.23980345-9.75985778-75.759616 29.0816 0 0 24.66833294 154.84359111-109.22899684 196.13696-133.90082503 41.29450667-206.13373042 8.60501333-206.13373042 8.60501333s-26.42761045 201.30247111 0 216.78307555c26.42644537 15.48743111 81.04443904-113.55363555 105.70811165-147.96458666l70.47595805 9.52547555c0 0-21.14162233 143.60007111-8.81153367 160.80668445 12.33707918 17.20433778 74.51181056 2.65216 91.61408513-144.52394667 0 0 176.18523477 12.04792889 200.8547328 10.32078222 0 0-14.67656875 123.35672889 21.14162233 120.43946667 21.13696198-1.72145778 15.85213895-91.18492445 22.90089984-122.15751111 0 0 45.80995529-6.88241778 70.47013262-12.04565333 0 0-5.28365795 123.87328 10.56731591 135.92462222 15.86378979 12.04224 95.14545607-61.93948446 75.76078109-307.97824 0 0 7.04643072-8.60615111 22.90556017 32.68835555 15.85446912 41.29109333 45.80296477 116.59946667 95.13730048 85.82712889C964.34520064 656.93354667 984.89496007 608.96028445 964.34520064 582.57294222zM202.78076302 592.62862222c19.33457635 2.52472889 37.20580665 4.36451555 53.3725184 5.64565333 102.02061938 13.89454222 157.1291136-15.90385778 186.80148423-49.98030222 9.05270613-5.95854222 17.49723819-15.25304889 24.56347535-28.80398222 32.29963605-61.93834667-8.81502891-113.55363555-26.43227079-136.30463998-0.29010603-0.37432889-0.58487239-0.71338667-0.87730859-1.06837335-0.60001849-13.52931555-1.25363086-33.02286222-1.048576-50.36373333 30.69531477-3.84113778 47.72768427-20.65749332 47.72768426-32.49152 0-12.04224-66.94808235-53.21500445-66.94808234-53.21500445 0-17.08942222-7.04876089-53.45507554-24.66367261-68.94364445-17.61724189-15.48629333-26.4311057 0-26.4311057 0-3.52671061 48.17237333-52.85522091 65.38126222-105.70927673 68.81962667-52.85405582 3.44291555-59.89815637-68.81962667-59.89815637-68.81962667-43.16870883 0.85902222-69.59631929 81.72657778-69.5963193 81.72999112-37.87922547 0.86243555-76.72197575 31.83160889-76.72197574 31.83160888 18.41299456 32.69063111 72.32145181 51.61642667 72.32145178 51.61642667 1.74646158 0.26851555 3.78419427 0.77255111 6.03746761 1.43246223-5.45026503 17.80963555-13.59304021 41.39349333-22.99061134 58.7411911-32.37070621 11.81468445-63.33865074 34.18453334-53.51698887 89.50442667 13.14215253 74.02382221 83.04721921 92.66744889 107.02815232 96.91932445C179.13537422 592.10524445 191.80333739 592.95175111 202.78076302 592.62862222zM182.09119346 526.35875555c-8.79871773-10.34695111-17.59743545-58.48177778 14.10800753-49.43872 23.3156699 6.65031111 12.34756494 34.90133333 4.90384043 49.39776C194.46322517 528.47388445 188.03661938 528.14051555 182.09119346 526.35875555zM345.06553571 359.47747555c0.60700899 0.73272889 1.27460238 1.38353778 1.99578964 1.96608-1.21401799 7.37735111-2.74493895 14.77404445-4.65567742 21.11374223-7.58469973-0.89543111-12.31144733-2.43256889-12.31144733-2.43256889C296.61899435 371.52085333 326.56865507 337.10876445 345.06553571 359.47747555zM321.28383203 476.92003555c17.42849821-23.38929778 27.95736633 0.73841779 31.59709014 33.84661334-4.47974969 10.15011555-12.43960661 16.05745778-21.84183808 19.2056889-0.92158178-0.81464889-1.82568733-1.44952889-2.704161-1.8796089C314.23623623 521.21031111 303.66192981 500.56419555 321.28383203 476.92003555zM234.07027086 380.12814222c-1.9771483 3.03672889-13.57556395 5.89596445-28.40708892 8.37973333-2.36745159-7.59125333-4.41217479-17.04846222-4.1721674-26.60920888 3.78069902-0.04209778 7.340032-0.50858667 10.5533349-1.55420446C235.82954837 352.59960889 240.23356757 370.66524445 234.07027086 380.12814222z" p-id="1849"></path></svg>