<?xml version="1.0" standalone="no"?><!DOCTYPE svg PUBLIC "-//W3C//DTD SVG 1.1//EN" "http://www.w3.org/Graphics/SVG/1.1/DTD/svg11.dtd"><svg t="1520316053380" class="icon" style="" viewBox="0 0 1024 1024" version="1.1" xmlns="http://www.w3.org/2000/svg" p-id="1652" xmlns:xlink="http://www.w3.org/1999/xlink" width="200" height="200"><defs><style type="text/css"></style></defs><path d="M581.23076943 131.23076943h-138.46153886a34.61538427 34.61538427 0 0 0 0 69.23076943h138.46153886a34.61538427 34.61538427 0 0 0 0-69.23076943zM165.84615371 131.23076943h-69.23076944a34.61538427 34.61538427 0 0 0 0 69.23076943h69.23076945a34.61538427 34.61538427 0 0 0 0-69.23076943zM927.38461573 131.23076943h-69.23076944a34.61538427 34.61538427 0 0 0 0 69.23076943h69.23076943a34.61538427 34.61538427 0 0 0 1e-8-69.23076943z" fill="#13227a" p-id="1653"></path><path d="M927.38461573 131.23076943a34.61538427 34.61538427 0 0 0-34.61538516 34.61538428v761.53846202a34.61538427 34.61538427 0 0 0 69.23076943 0v-761.53846202a34.61538427 34.61538427 0 0 0-34.61538427-34.61538428zM96.61538427 131.23076943a34.61538427 34.61538427 0 0 0-34.61538427 34.61538428v761.53846202a34.61538427 34.61538427 0 0 0 69.23076943 0v-761.53846202A34.61538427 34.61538427 0 0 0 96.61538427 131.23076943z" fill="#13227a" p-id="1654"></path><path d="M927.38461573 892.76923057H96.61538427a34.61538427 34.61538427 0 0 0 1e-8 69.23076943h830.76923145a34.61538427 34.61538427 0 0 0 0-69.23076943zM788.92307685 408.15384628h-553.8461537a34.61538427 34.61538427 0 0 0 0 69.23076945h553.8461537a34.61538427 34.61538427 0 0 0 0-69.23076945zM788.92307685 546.61538427h-553.8461537a34.61538427 34.61538427 0 0 0 0 69.23076945h553.8461537a34.61538427 34.61538427 0 0 0 0-69.23076945z" fill="#13227a" p-id="1655"></path><path d="M788.92307685 546.61538427h-553.8461537a34.61538427 34.61538427 0 0 0 0 69.23076945h553.8461537a34.61538427 34.61538427 0 0 0 0-69.23076945zM788.92307685 685.07692315h-553.8461537a34.61538427 34.61538427 0 0 0 0 69.23076943h553.8461537a34.61538427 34.61538427 0 0 0 0-69.23076943z" fill="#545416" p-id="1656"></path><path d="M788.92307685 685.07692315h-553.8461537a34.61538427 34.61538427 0 0 0 0 69.23076943h553.8461537a34.61538427 34.61538427 0 0 0 0-69.23076943zM719.69230742 62a34.61538427 34.61538427 0 0 0-34.61538427 34.61538427v138.46153888a34.61538427 34.61538427 0 0 0 69.23076943 0v-138.46153888a34.61538427 34.61538427 0 0 0-34.61538516-34.61538427zM304.30769258 62a34.61538427 34.61538427 0 0 0-34.61538516 34.61538427v138.46153888a34.61538427 34.61538427 0 0 0 69.23076943 0v-138.46153888a34.61538427 34.61538427 0 0 0-34.61538427-34.61538427z" fill="#1296db" p-id="1657"></path></svg>