<?xml version="1.0" standalone="no"?><!DOCTYPE svg PUBLIC "-//W3C//DTD SVG 1.1//EN" "http://www.w3.org/Graphics/SVG/1.1/DTD/svg11.dtd"><svg t="1520315769758" class="icon" style="" viewBox="0 0 1024 1024" version="1.1" xmlns="http://www.w3.org/2000/svg" p-id="1323" xmlns:xlink="http://www.w3.org/1999/xlink" width="200" height="200"><defs><style type="text/css"></style></defs><path d="M434.769 769.105c1.206 1.826 2.178 1.658 2.816-0.285 3.25-10.409 13.877-44.03 18.335-59.501 148.635 26.6 200.527-92.302 209.846-117.812 1.14-3.017 0.301-3.47-2.078-1.223-14.146 12.806-66.708 56.685-127.283 57.942-41.03 0.888-61.881-11.682-61.881-11.682l17.633-64.044s1.138-4.827-3.219-2.833c-4.29 1.978-140.423 64.379-140.423 64.379s-2.616 1.123-0.94 3.554c1.444 2.261 74.522 112.48 87.194 131.505zM359.277 506.847c16.326-14.549 68.117-56.099 127.484-57.372 41.634-0.838 62.786 11.85 62.786 11.85l-18.17 65.987s-1.173 4.207 3.22 1.978c23.33-11.682 137.874-63.054 141.73-65 2.917-1.39 1.44-4.776 1.44-4.776l-86.888-131.17s-2.916-3.487-4.425 0.653c-3.787 12.118-13.777 43.662-18.067 58.545-148.2-26.532-201.568 89.604-212.294 118.115-1.476 3.922-0.336 4.274 3.184 1.19z" fill="#0e932e" p-id="1324"></path><path d="M929.45 132.458H94.163c-16.02 0-29.008 12.987-29.008 29.007v35.615c0 16.02 12.987 29.007 29.008 29.007h30.599l134.83 692.746H764.58l132.75-692.746h32.12c16.02 0 29.008-12.987 29.008-29.007v-35.615c0-16.02-12.987-29.007-29.008-29.007zM730.75 877.898H293.327L166.464 226.085h689.19L730.748 877.898z" fill="#545416" p-id="1325"></path></svg>