<?xml version="1.0" standalone="no"?><!DOCTYPE svg PUBLIC "-//W3C//DTD SVG 1.1//EN" "http://www.w3.org/Graphics/SVG/1.1/DTD/svg11.dtd"><svg t="1520314377546" class="icon" style="" viewBox="0 0 1024 1024" version="1.1" xmlns="http://www.w3.org/2000/svg" p-id="1208" xmlns:xlink="http://www.w3.org/1999/xlink" width="200" height="200"><defs><style type="text/css"></style></defs><path d="M413.6 599.63H240.14c-4.77 0-8.7 3.9-8.7 8.73v43.35c0 4.77 3.9 8.67 8.7 8.67h173.49a8.7 8.7 0 0 0 8.7-8.67v-43.35a8.73 8.73 0 0 0-8.73-8.73z m-138.81 39.09a8.7 8.7 0 1 1 0-17.31 8.7 8.7 0 0 1 0 17.31z m26.01 0a8.67 8.67 0 1 1 0-17.34 8.67 8.67 0 0 1 0 17.34z m86.82 0h-43.41a8.7 8.7 0 1 1 0-17.31h43.41a8.67 8.67 0 0 1 0 17.31z m25.98-108.39H240.14a8.7 8.7 0 0 0-8.7 8.7v43.41c0 4.77 3.9 8.64 8.7 8.64h173.49c4.83 0 8.7-3.87 8.7-8.64v-43.41a8.73 8.73 0 0 0-8.73-8.7z m-138.81 39.03a8.7 8.7 0 1 1 0-17.37 8.7 8.7 0 1 1 0 17.37z m26.01 0a8.67 8.67 0 1 1 8.7-8.73 8.73 8.73 0 0 1-8.7 8.73z m86.82 0h-43.41a8.7 8.7 0 1 1 0-17.37h43.41a8.67 8.67 0 1 1 0 17.37z m25.98-108.45H240.14a8.76 8.76 0 0 0-8.7 8.7v43.38c0 4.77 3.9 8.7 8.7 8.7h173.49a8.7 8.7 0 0 0 8.7-8.7v-43.38a8.76 8.76 0 0 0-8.73-8.7z m-138.81 39.03a8.7 8.7 0 1 1 0-17.4 8.7 8.7 0 0 1 0 17.4z m26.01 0a8.7 8.7 0 1 1 0.06-17.4 8.7 8.7 0 0 1-0.06 17.4z m86.82 0h-43.41a8.7 8.7 0 1 1 0-17.37h43.41a8.7 8.7 0 0 1 0 17.37z" fill="#d4237a" p-id="1209"></path><path d="M709.49 781.28a512.1 512.1 0 0 1-34.89-34.08c-11.04-11.76-15.81-23.55-17.58-33.6H255.77a148.05 148.05 0 0 1-147.9-147.93v-0.51a147.15 147.15 0 0 1 131.07-146.25l40.11-4.32 18.39-35.16c34.47-65.64 102.12-109.62 180.06-109.62h0.21a203.46 203.46 0 0 1 199.26 163.74l4.23 21.45c8.13-8.64 16.62-17.01 25.23-25.02 14.94-13.98 30.39-17.31 41.73-17.31a276.9 276.9 0 0 0-270.45-216.72 277.26 277.26 0 0 0-245.94 149.43 221.61 221.61 0 0 0-197.85 220.38 222.03 222.03 0 0 0 221.88 221.88h461.61a90.42 90.42 0 0 1-26.04-28.98l18.12 22.62z" fill="#1296db" p-id="1210"></path><path d="M989.36 584.57c-0.78-10.62-2.82-11.58-13.29-10.74-11.67 0.93-21.48-4.89-25.5-15-4.14-10.35-1.11-21.03 7.92-28.47 6.15-5.01 6.87-9.09 1.32-14.91a393.3 393.3 0 0 0-26.1-25.38c-7.02-6.24-10.29-5.46-16.23 2.07a23.85 23.85 0 0 1-29.58 6.87c-9.78-4.56-14.43-12.99-13.68-25.05 0.54-8.22-1.89-11.07-10.11-11.73-6.39-0.51-12.84-0.81-18.87-1.2-6.3 0.69-12.18 1.2-18.06 1.98-8.19 1.08-9.93 3.48-9.24 11.85 1.08 12.72-4.23 22.26-14.73 26.64-10.23 4.23-20.82 1.17-28.89-8.31-4.74-5.61-8.91-6.45-14.13-1.44-8.91 8.25-17.43 16.89-25.62 25.92-6.87 7.8-6.12 10.41 1.89 17.04 7.56 6.3 10.8 14.37 8.7 24.12s-8.43 16.26-18.27 18.57c-3.57 0.81-7.59 0.33-11.37 0.33-5.16 0-8.43 2.25-9.12 7.35a130.2 130.2 0 0 0-1.38 19.08c0 8.13 0.75 16.05 2.1 23.79 0.87 4.71 3.87 6.84 9.42 6.54 2.91-0.21 5.91-0.87 8.79-0.6 10.23 0.87 18.6 8.13 21.18 17.64 2.82 9.42-0.54 19.23-8.82 25.86-6.81 5.4-7.59 9.24-1.62 15.57 8.13 8.67 16.68 17.19 25.65 25.05 7.65 6.72 10.53 5.97 16.92-2.13a24.03 24.03 0 0 1 19.23-9.51c6.09 0 11.67 2.31 15.93 6 7.14 6.15 9.12 13.95 8.16 23.01-0.69 6.72 1.77 10.53 7.59 10.65 13.14 0.24 26.37 0.3 39.45-0.45 8.55-0.6 10.26-3.63 9.33-12.24-1.47-12.48 3.81-22.29 14.31-26.76 10.56-4.44 21.42-1.44 29.25 8.28 4.8 5.91 9.06 6.87 14.46 1.65 9.06-8.61 17.82-17.58 26.07-26.88 6.03-6.81 5.22-10.44-2.04-15.87a23.76 23.76 0 0 1-9.93-18.57c-0.84-15 11.7-26.7 27.3-25.17 7.98 0.78 11.91-1.47 12.06-8.43a362.1 362.1 0 0 0-0.63-38.01l0.18 0.99z m-141.54 81.09c-34.26-0.39-61.77-28.17-61.26-62.13 0.45-33.45 28.08-60.93 61.08-60.81 34.08 0.12 62.19 28.14 61.89 61.77-0.36 34.02-28.17 61.65-61.71 61.26v-0.09z" fill="#d81e06" p-id="1211"></path></svg>