<?xml version="1.0" standalone="no"?><!DOCTYPE svg PUBLIC "-//W3C//DTD SVG 1.1//EN" "http://www.w3.org/Graphics/SVG/1.1/DTD/svg11.dtd"><svg t="1520315379611" class="icon" style="" viewBox="0 0 1025 1024" version="1.1" xmlns="http://www.w3.org/2000/svg" p-id="1323" xmlns:xlink="http://www.w3.org/1999/xlink" width="200.1953125" height="200"><defs><style type="text/css"></style></defs><path d="M236.84752286 691.45108349c-17.13505693 0-31.4725544 23.07987334-31.47255352 40.21493028s14.33749658 40.21493027 31.47255352 40.21493027h108.40546493c17.48475263 0 31.4725544-22.73017763 31.4725544-40.21493027S362.73773955 691.45108349 345.25298779 691.45108349zM730.96662412 512.40722011c0-17.48475263-14.33749658-40.21493027-31.4725544-40.21493027H236.84752286c-17.13505693 0-31.4725544 22.73017763-31.47255352 40.21493027S218.31368574 551.57306504 236.84752286 551.57306504h462.64654687c17.13505693 0 31.4725544-23.07987334 31.47255439-40.21493027zM236.84752286 335.11183174h462.99624169c17.48475263 0 31.4725544-22.73017763 31.4725544-40.21493115s-13.98780176-40.21493027-31.4725544-40.21493028H236.84752286c-17.13505693 0-31.4725544 23.07987334-31.47255352 40.21493028s14.33749658 40.21493027 31.47255352 40.21493115z" fill="#4E8CEE" p-id="1324"></path><path d="M869.4458624 531.99014258V145.92681143A84.97589589 84.97589589 0 0 0 784.81966133 62H160.26430801A111.20302442 111.20302442 0 0 0 62 159.56491836v704.63551816a110.85332959 110.85332959 0 0 0 98.26430801 97.56491836h483.97794433a37.76706474 37.76706474 0 0 0 41.96340528-38.11676045c0-25.17804316-18.18414229-48.95730615-34.9695044-49.30700185H185.79204687c-24.82834834 0-34.9695044-11.19024141-34.96950527-34.9695044V179.84723047c0-21.68109316 8.74237588-30.42346904 30.42346905-30.42346904h568.9538411c22.03078799 0 30.77316387 8.74237588 30.77316388 30.42346904v352.14291211c0 17.13505693 23.42956816 32.17194404 50.0063915 32.17194404a34.9695044 34.9695044 0 0 0 38.11676045-32.17194404z" fill="#13227a" p-id="1325"></path><path d="M466.94686396 736.91143964a61.89602344 61.89602344 0 1 0 61.89602344-62.9451079 62.59541308 62.59541308 0 0 0-61.89602344 62.94510791zM714.53095684 673.96633174a62.94510879 62.94510879 0 1 0 61.89602343 62.94510791 62.24571826 62.24571826 0 0 0-61.89602344-62.94510791zM901.26811162 673.96633174a62.94510879 62.94510879 0 1 0 61.89602344 62.94510791A62.59541308 62.59541308 0 0 0 901.26811162 673.96633174z" fill="#d81e06" p-id="1326"></path></svg>