<?xml version="1.0" standalone="no"?><!DOCTYPE svg PUBLIC "-//W3C//DTD SVG 1.1//EN" "http://www.w3.org/Graphics/SVG/1.1/DTD/svg11.dtd"><svg t="1520319300037" class="icon" style="" viewBox="0 0 1024 1024" version="1.1" xmlns="http://www.w3.org/2000/svg" p-id="1418" xmlns:xlink="http://www.w3.org/1999/xlink" width="200" height="200"><defs><style type="text/css"></style></defs><path d="M847 131.2c25.3 0 45.8 20.6 45.8 45.8v670c0 25.3-20.6 45.8-45.8 45.8H177c-25.3 0-45.8-20.6-45.8-45.8V177c0-25.3 20.6-45.8 45.8-45.8h670m0-67.2H177c-62.4 0-113 50.6-113 113v670c0 62.4 50.6 113 113 113h670c62.4 0 113-50.6 113-113V177c0-62.4-50.6-113-113-113z" fill="#A6CBDD" p-id="1419"></path><path d="M253.8 892.8l130.5-139.6 65.8 65.9 123.2-123.2 196.9 196.9z" fill="#60A9D1" p-id="1420"></path><path d="M253.8 892.8l92.7-99.2 65.2 63.9 106.6-106.6 139.9 141.9z" fill="#A6CBDD" p-id="1421"></path><path d="M324.3 671.5c-18.6 0-33.6-15-33.6-33.6V287.8c0-18.6 15-33.6 33.6-33.6s33.6 15 33.6 33.6v350.1c0 18.6-15 33.6-33.6 33.6zM512 671.5c-18.6 0-33.6-15-33.6-33.6V287.8c0-18.6 15-33.6 33.6-33.6s33.6 15 33.6 33.6v350.1c0 18.6-15 33.6-33.6 33.6z" fill="#60A9D1" p-id="1422"></path><path d="M512 496.5H324.3c-18.6 0-33.6-15-33.6-33.6s15-33.6 33.6-33.6H512c18.6 0 33.6 15 33.6 33.6 0 18.5-15 33.6-33.6 33.6zM699.7 671.5c-18.6 0-33.6-15-33.6-33.6V434.7c0-18.6 15-33.6 33.6-33.6s33.6 15 33.6 33.6v203.2c0 18.6-15 33.6-33.6 33.6zM699.7 355.3c-18.6 0-33.6-15-33.6-33.6v-33.9c0-18.6 15-33.6 33.6-33.6s33.6 15 33.6 33.6v33.9c0 18.6-15 33.6-33.6 33.6z" fill="#60A9D1" p-id="1423"></path></svg>