<?xml version="1.0" standalone="no"?><!DOCTYPE svg PUBLIC "-//W3C//DTD SVG 1.1//EN" "http://www.w3.org/Graphics/SVG/1.1/DTD/svg11.dtd"><svg t="1520316048177" class="icon" style="" viewBox="0 0 1024 1024" version="1.1" xmlns="http://www.w3.org/2000/svg" p-id="1524" xmlns:xlink="http://www.w3.org/1999/xlink" width="200" height="200"><defs><style type="text/css"></style></defs><path d="M945.9 721.9v-50h-81.8c-4.2-29.6-15.9-56.9-33.1-79.8l57.8-57.8-35.4-35.4-57.8 57.8c-22.9-17.2-50.2-28.8-79.8-33.1v-81.8h-50v81.8c-29.6 4.2-56.9 15.9-79.8 33.1l-57.8-57.8-35.4 35.4 57.8 57.8c-17.2 22.9-28.8 50.2-33.1 79.8h-81.8v50h81.8c4.2 29.6 15.9 56.9 33.1 79.8l-57.8 57.8 35.4 35.4 57.8-57.8c22.9 17.2 50.2 28.8 79.8 33.1V952h50v-81.8c29.6-4.2 56.9-15.9 79.8-33.1l57.8 57.8 35.4-35.4-57.8-57.8c17.2-22.9 28.8-50.2 33.1-79.8h81.8z m-131.3-7.1c-2.9 20.6-11.1 40.2-23.6 56.9l-10.8 14.5-14.4 10.8c-16.7 12.5-36.3 20.6-56.9 23.6l-17.9 2.6-17.9-2.6c-20.6-2.9-40.2-11.1-56.9-23.6l-14.5-10.8-10.8-14.5c-12.5-16.7-20.6-36.3-23.6-56.9l-2.6-17.9 2.6-17.9c2.9-20.6 11.1-40.2 23.6-56.9l10.8-14.5 14.5-10.8c16.7-12.5 36.3-20.6 56.9-23.6l17.9-2.6 17.9 2.6c20.6 2.9 40.2 11.1 56.9 23.6l14.5 10.8 10.8 14.5c12.5 16.7 20.6 36.3 23.6 56.9l2.6 17.9-2.7 17.9z m-537.2-79.3h76.1v50H122.4v220h231.1v50H72.4v-320h155V482.2H448v50H277.4v103.3z m207-180.5h50v-66.4h200v-320h-450v320h200V455z m-150-116.5v-220h350v220h-350z" fill="#1296db" p-id="1525"></path></svg>