<?xml version="1.0" standalone="no"?><!DOCTYPE svg PUBLIC "-//W3C//DTD SVG 1.1//EN" "http://www.w3.org/Graphics/SVG/1.1/DTD/svg11.dtd"><svg t="1520230235223" class="icon" style="" viewBox="0 0 1024 1024" version="1.1" xmlns="http://www.w3.org/2000/svg" p-id="1045" xmlns:xlink="http://www.w3.org/1999/xlink" width="200" height="200"><defs><style type="text/css"></style></defs><path d="M898.15040001 125.63342223C876.30506667 113.25440001 851.54702223 105.24444445 824.60444446 105.24444445L169.24444446 105.24444445C142.30186667 105.24444445 117.54382223 113.25440001 95.69848889 125.63342223L496.92444446 526.85937779 898.15040001 125.63342223zM949.85102223 177.33404445L524.59520001 602.58986667C517.31342223 609.87164445 507.11893334 613.51253334 496.92444446 612.78435556 486.72995556 613.51253334 476.53546667 609.87164445 469.25368889 602.58986667L43.99786667 177.33404445C31.61884446 199.17937779 23.60888889 223.93742223 23.60888889 250.88000001l0 509.72444444c0 80.09955555 65.536 145.63555555 145.63555557 145.63555556l655.36 0c80.09955555 0 145.63555555-65.536 145.63555555-145.63555556L970.24000001 250.88000001C970.24000001 223.93742223 962.23004446 199.17937779 949.85102223 177.33404445z" fill="#e3da25" p-id="1046"></path></svg>