<?xml version="1.0" standalone="no"?><!DOCTYPE svg PUBLIC "-//W3C//DTD SVG 1.1//EN" "http://www.w3.org/Graphics/SVG/1.1/DTD/svg11.dtd"><svg t="1520314387195" class="icon" style="" viewBox="0 0 1024 1024" version="1.1" xmlns="http://www.w3.org/2000/svg" p-id="1343" xmlns:xlink="http://www.w3.org/1999/xlink" width="200" height="200"><defs><style type="text/css"></style></defs><path d="M87.2816 193.3328H927.2V612.8H87.2816z" fill="#FFFFFF" p-id="1344"></path><path d="M935.1296 613.1648v47.6832c0 34.7664-28.1712 62.9376-62.9376 62.9376H150.2192c-34.7664 0-62.9376-28.1712-62.9376-62.9376v-47.6832h847.848z" fill="#8B87C1" p-id="1345"></path><path d="M625.0208 786.728v5.3952c0 34.7664-28.1712 62.9376-62.9376 62.9376H460.2992c-34.7664 0-62.9376-28.1712-62.9376-62.9376v-5.3952c0-34.7664 28.1712-62.9376 62.9376-62.9376h101.7792c34.7712 0 62.9424 28.176 62.9424 62.9376z" fill="#5FCEFF" p-id="1346"></path><path d="M872.192 744.7712h-310.1088a20.9808 20.9808 0 0 1 0-41.9616h310.1088c23.136 0 41.9616-18.8208 41.9616-41.9616V235.2944c0-23.136-18.8208-41.9616-41.9616-41.9616H150.2192c-23.136 0-41.9616 18.8208-41.9616 41.9616v425.5584c0 23.136 18.8208 41.9616 41.9616 41.9616h310.08a20.9808 20.9808 0 0 1 0 41.9616h-310.08c-46.272 0-83.9184-37.6464-83.9184-83.9184V235.2944c0-46.272 37.6464-83.9184 83.9184-83.9184H872.192c46.272 0 83.9184 37.6464 83.9184 83.9184v425.5584c0 46.272-37.6464 83.9184-83.9184 83.9184z" fill="#4F46A3" p-id="1347"></path><path d="M562.0832 876.0464a20.9808 20.9808 0 0 1 0-41.9616c23.136 0 41.9616-18.8208 41.9616-41.9616v-5.4c0-23.136-18.8208-41.9616-41.9616-41.9616H460.2992c-23.136 0-41.9616 18.8208-41.9616 41.9616v5.4c0 23.136 18.8208 41.9616 41.9616 41.9616a20.9808 20.9808 0 0 1 0 41.9616c-46.272 0-83.9184-37.6464-83.9184-83.9184v-5.4c0-46.272 37.6464-83.9184 83.9184-83.9184h101.7792c46.272 0 83.9184 37.6464 83.9184 83.9184v5.4c0.0048 46.272-37.6416 83.9184-83.9136 83.9184z" fill="#4F46A3" p-id="1348"></path><path d="M732.3152 876.0464H290.0672a20.9808 20.9808 0 0 1 0-41.9616H732.32a20.9808 20.9808 0 1 1-0.0048 41.9616z m202.8144-241.896H87.2816a20.9808 20.9808 0 0 1 0-41.9616h847.848a20.9808 20.9808 0 0 1 0 41.9616z" fill="#4F46A3" p-id="1349"></path></svg>