<?xml version="1.0" standalone="no"?><!DOCTYPE svg PUBLIC "-//W3C//DTD SVG 1.1//EN" "http://www.w3.org/Graphics/SVG/1.1/DTD/svg11.dtd"><svg t="1520385582744" class="icon" style="" viewBox="0 0 1024 1024" version="1.1" xmlns="http://www.w3.org/2000/svg" p-id="1535" xmlns:xlink="http://www.w3.org/1999/xlink" width="200" height="200"><defs><style type="text/css"></style></defs><path d="M424.72727281 752V359.27272719c0-13.09090875-8.72727281-21.81818156-21.81818156-21.81818157s-21.81818156 8.72727281-21.8181825 21.81818157v392.72727281c0 13.09090875 8.72727281 21.81818156 21.8181825 21.81818156s21.81818156-8.72727281 21.81818156-21.81818156z m370.90909125 152.72727281c0 24-19.63636406 43.63636406-43.63636406 43.63636313H272c-24 0-43.63636406-19.63636406-43.63636406-43.63636313V359.27272719c0-13.09090875-8.72727281-21.81818156-21.81818157-21.81818157s-21.81818156 8.72727281-21.81818156 21.81818157v545.45454562c0 48 39.27272719 87.27272719 87.27272719 87.27272719h480c48 0 87.27272719-39.27272719 87.27272719-87.27272719V359.27272719c0-13.09090875-8.72727281-21.81818156-21.81818157-21.81818157s-21.81818156 8.72727281-21.81818156 21.81818157v545.45454562z m130.90909032-698.18181843h-152.72727282V119.27272719c0-48-39.27272719-87.27272719-87.27272718-87.27272719H337.45454563c-48 0-87.27272719 39.27272719-87.27272719 87.27272719v87.27272718H97.45454562c-13.09090875 0-21.81818156 8.72727281-21.81818156 21.81818157s8.72727281 21.81818156 21.81818157 21.8181825h829.09090875c13.09090875 0 21.81818156-8.72727281 21.81818156-21.8181825s-8.72727281-21.81818156-21.81818156-21.81818157z m-196.36363594 0H293.81818156V119.27272719c0-24 19.63636406-43.63636406 43.63636407-43.63636313h349.09090874c24 0 43.63636406 19.63636406 43.63636407 43.63636313v87.27272718z m-87.27272719 545.45454562V359.27272719c0-13.09090875-8.72727281-21.81818156-21.8181825-21.81818157s-21.81818156 8.72727281-21.81818156 21.81818157v392.72727281c0 13.09090875 8.72727281 21.81818156 21.81818156 21.81818156s21.81818156-8.72727281 21.8181825-21.81818156z" fill="#666666" p-id="1536"></path></svg>