<?xml version="1.0" standalone="no"?><!DOCTYPE svg PUBLIC "-//W3C//DTD SVG 1.1//EN" "http://www.w3.org/Graphics/SVG/1.1/DTD/svg11.dtd"><svg t="1520238144628" class="icon" style="" viewBox="0 0 1024 1024" version="1.1" xmlns="http://www.w3.org/2000/svg" p-id="1371" xmlns:xlink="http://www.w3.org/1999/xlink" width="200" height="200"><defs><style type="text/css"></style></defs><path d="M96 160h832c19.2 0 32 12.8 32 32s-12.8 32-32 32h-832c-19.2 0-32-12.8-32-32s12.8-32 32-32z m0 320h832c19.2 0 32 12.8 32 32s-12.8 32-32 32h-832c-19.2 0-32-12.8-32-32s12.8-32 32-32z m0 320h832c19.2 0 32 12.8 32 32s-12.8 32-32 32h-832c-19.2 0-32-12.8-32-32s12.8-32 32-32z" p-id="1372"></path></svg>