<?xml version="1.0" standalone="no"?><!DOCTYPE svg PUBLIC "-//W3C//DTD SVG 1.1//EN" "http://www.w3.org/Graphics/SVG/1.1/DTD/svg11.dtd"><svg t="1517887920317" class="icon" style="" viewBox="0 0 1024 1024" version="1.1" xmlns="http://www.w3.org/2000/svg" p-id="1392" xmlns:xlink="http://www.w3.org/1999/xlink" width="200" height="200"><defs><style type="text/css"></style></defs><path d="M195.58492906 238.1613425L195.58492906 827.93683437c0 69.79843688 56.59682719 126.38087344 126.36648375 126.38087344l379.12727157 0c69.79555875 0 126.39142687-56.5824375 126.39142687-126.38087343L827.47011125 238.1613425 195.58492906 238.1613425 195.58492906 238.1613425zM364.23378594 821.49864031c0 15.33616219-9.45534938 27.74055188-21.12679594 27.74055188l-21.15461719 0c-11.68583719 0-21.14022656-12.40438969-21.14022656-27.74055188L300.81214531 349.86800562c0-14.78069906 8.87014594-26.58549469 19.94583657-27.44890968l23.50406437 0c11.07473156 0.863415 19.94583656 12.66917063 19.94583656 27.44890969l0 471.63159374L364.23378594 821.49959938zM553.79550219 821.49864031c0 15.33616219-9.45439031 27.74055188-21.127755 27.74055188l-42.29388469 0c-11.65801594 0-21.12679594-12.40438969-21.12679594-27.74055188L469.24706656 349.86800562c0-14.78069906 8.872065-26.58549469 19.94583656-27.44890968l44.63181938 0c11.08912125 0.863415 19.94583656 12.66917063 19.94583656 27.44890969l0 471.63159374L553.79550219 821.49959938zM722.23138344 349.86800562l0 471.64214626c0 15.33808031-9.45343031 27.74055188-21.15269813 27.74055187l-21.14214562 0c-11.65801594 0-21.11240625-12.40247156-21.11240625-27.74055188L658.82413344 349.86800562c0-14.78069906 8.85671531-26.58549469 19.9448775-27.44890968l23.49063375 0C713.37370906 323.28251 722.23138344 335.08730656 722.23138344 349.86800562L722.23138344 349.86800562zM827.47011125 69.67269781l-631.88518219 0c-23.26518656 0-42.1355925 18.87040594-42.1355925 42.12216094l0 21.06060094c0 23.27861719 18.87040594 42.12312094 42.1355925 42.12312094l631.88518219 0c23.252715 0 42.12312094-18.84450375 42.12312094-42.12312094L869.59323219 111.79485875C869.59323219 88.54310375 850.7496875 69.67269781 827.47011125 69.67269781L827.47011125 69.67269781zM827.47011125 69.67269781" p-id="1393"></path></svg>