<?xml version="1.0" standalone="no"?><!DOCTYPE svg PUBLIC "-//W3C//DTD SVG 1.1//EN" "http://www.w3.org/Graphics/SVG/1.1/DTD/svg11.dtd"><svg t="1526017605915" class="icon" style="" viewBox="0 0 1024 1024" version="1.1" xmlns="http://www.w3.org/2000/svg" p-id="2352" xmlns:xlink="http://www.w3.org/1999/xlink" width="200" height="200"><defs><style type="text/css"></style></defs><path d="M512 962c-247.5 0-450-202.5-450-450s202.5-450 450-450 450 202.5 450 450S759.5 962 512 962L512 962zM512 107C287 107 107 287 107 512S287 917 512 917 917 737 917 512 737 107 512 107L512 107z" p-id="2353"></path><path d="M770.75 483.875c0 0-371.25-208.125-376.875-208.125C360.125 264.5 348.875 292.625 348.875 315.125l0 0c0 0 0 410.625 5.625 410.625 11.25 28.125 39.375 28.125 61.875 16.875l0 0c0 0 343.125-196.875 348.75-202.5C782 528.875 798.875 506.375 770.75 483.875L770.75 483.875z" p-id="2354"></path></svg>