<?xml version="1.0" standalone="no"?><!DOCTYPE svg PUBLIC "-//W3C//DTD SVG 1.1//EN" "http://www.w3.org/Graphics/SVG/1.1/DTD/svg11.dtd"><svg t="1517887926698" class="icon" style="" viewBox="0 0 1024 1024" version="1.1" xmlns="http://www.w3.org/2000/svg" p-id="1510" xmlns:xlink="http://www.w3.org/1999/xlink" width="200" height="200"><defs><style type="text/css"></style></defs><path d="M946.176 450.56l0 118.784L880.64 569.344c-10.24 59.392-32.768 114.688-67.584 159.744l45.056 45.056L776.192 860.16l-45.056-45.056c-47.104 34.816-100.352 57.344-159.744 67.584l0 63.488L450.56 946.176 450.56 880.64c-59.392-10.24-114.688-32.768-159.744-67.584L243.712 860.16l-83.968-83.968 45.056-45.056c-34.816-47.104-57.344-100.352-67.584-159.744L75.776 571.392 75.776 450.56l63.488 0c10.24-59.392 32.768-114.688 67.584-159.744l-45.056-45.056 83.968-83.968 45.056 45.056c47.104-32.768 100.352-57.344 159.744-67.584L450.56 75.776l118.784 0 0 63.488c59.392 10.24 114.688 32.768 159.744 67.584l45.056-45.056 83.968 83.968-45.056 45.056c34.816 47.104 57.344 100.352 67.584 159.744L946.176 450.56zM851.968 509.952c0-188.416-153.6-342.016-342.016-342.016S167.936 321.536 167.936 509.952c0 188.416 153.6 342.016 342.016 342.016S851.968 698.368 851.968 509.952z" p-id="1511"></path><path d="M684.032 745.472 684.032 745.472c-12.288 0-20.48-6.144-20.48-8.192l-143.36-143.36 34.816-36.864c2.048-2.048 10.24-10.24 49.152-20.48l6.144-2.048 126.976 126.976c8.192 8.192 16.384 32.768-12.288 61.44C710.656 739.328 698.368 745.472 684.032 745.472zM679.936 722.944c0 0 2.048 2.048 6.144 2.048 6.144 0 16.384-4.096 24.576-14.336 20.48-20.48 12.288-30.72 12.288-30.72l-118.784-118.784c-26.624 8.192-32.768 12.288-32.768 14.336l-18.432 20.48L679.936 722.944C679.936 722.944 679.936 722.944 679.936 722.944z" p-id="1512"></path><path d="M452.608 497.664l-90.112-90.112L323.584 389.12l-47.104-73.728 40.96-40.96 73.728 47.104 16.384 38.912 90.112 90.112L491.52 460.8c-4.096 6.144-8.192 10.24-12.288 14.336l0 0L452.608 497.664zM337.92 372.736l36.864 16.384 79.872 79.872 10.24-8.192c2.048-2.048 2.048-2.048 4.096-4.096l-79.872-79.872-16.384-36.864-53.248-34.816-16.384 16.384L337.92 372.736z" p-id="1513"></path><path d="M634.88 315.392c12.288 0 24.576 2.048 32.768 6.144l-45.056 20.48-6.144 2.048 0 6.144L614.4 370.688l0 2.048 2.048 2.048 16.384 38.912 4.096 10.24 10.24-4.096 55.296-24.576c-8.192 16.384-24.576 38.912-47.104 51.2L645.12 450.56l4.096 10.24 14.336 32.768c-32.768 4.096-110.592 18.432-133.12 40.96l-155.648 163.84c-2.048 2.048-14.336 10.24-28.672 10.24-8.192 0-16.384-4.096-22.528-10.24-22.528-22.528-4.096-47.104 0-51.2l180.224-145.408 0 0 0 0c34.816-34.816 51.2-96.256 59.392-133.12 2.048-8.192 4.096-16.384 6.144-22.528 6.144-20.48 10.24-20.48 49.152-28.672l0 0C624.64 315.392 628.736 315.392 634.88 315.392L634.88 315.392M350.208 698.368c8.192 0 14.336-2.048 20.48-8.192 10.24-10.24 10.24-28.672 0-38.912-6.144-6.144-12.288-8.192-20.48-8.192-8.192 0-14.336 2.048-20.48 8.192-10.24 10.24-10.24 28.672 0 38.912C335.872 696.32 342.016 698.368 350.208 698.368M634.88 305.152c-6.144 0-12.288 0-18.432 2.048-40.96 8.192-49.152 10.24-57.344 36.864-8.192 26.624-20.48 108.544-63.488 149.504l-180.224 145.408c0 0-30.72 34.816 0 67.584 10.24 10.24 20.48 14.336 30.72 14.336 20.48 0 34.816-14.336 34.816-14.336l155.648-163.84c26.624-26.624 141.312-40.96 141.312-40.96l-18.432-47.104c45.056-22.528 61.44-81.92 61.44-81.92l-81.92 34.816-16.384-38.912 2.048-18.432 67.584-28.672C694.272 321.536 667.648 305.152 634.88 305.152L634.88 305.152zM350.208 688.128c-4.096 0-8.192-2.048-12.288-4.096-6.144-6.144-6.144-18.432 0-24.576 4.096-4.096 8.192-4.096 12.288-4.096 4.096 0 8.192 2.048 12.288 4.096 6.144 6.144 6.144 18.432 0 24.576C358.4 686.08 354.304 688.128 350.208 688.128L350.208 688.128z" p-id="1514"></path></svg>