<?xml version="1.0" standalone="no"?><!DOCTYPE svg PUBLIC "-//W3C//DTD SVG 1.1//EN" "http://www.w3.org/Graphics/SVG/1.1/DTD/svg11.dtd"><svg t="1517887868524" class="icon" style="" viewBox="0 0 1024 1024" version="1.1" xmlns="http://www.w3.org/2000/svg" p-id="916" xmlns:xlink="http://www.w3.org/1999/xlink" width="200" height="200"><defs><style type="text/css"></style></defs><path d="M512 815.65013333L190.8736 815.65013333c0-63.35146667 10.92266667-107.04213333 63.35146667-126.70293333s120.14933333-43.69066667 159.47093333-76.45866667c43.69066667-37.13706667 32.768-37.13706667 21.84533333-50.24426666-15.29173333-17.47626667-17.47626667-61.16693333-17.47626666-61.16693334-45.8752-13.1072-34.95253333-87.38133333-24.02986667-87.38133333s10.92266667-4.36906667 4.36906667-43.69066667c-8.73813333-50.24426667-4.36906667-76.45866667 19.6608-107.04213333S512 228.01066667 512 228.01066667l0 0c0 0 69.90506667 4.36906667 93.93493333 34.95253333s28.39893333 56.79786667 19.6608 107.04213333c-6.5536 39.3216-6.5536 43.69066667 4.36906667 43.69066667s19.6608 74.27413333-24.02986667 87.38133333c0 0-2.18453333 43.69066667-17.47626666 61.16693334-10.92266667 13.1072-21.84533333 13.1072 21.84533333 50.24426666 39.3216 32.768 107.04213333 58.9824 159.47093333 76.45866667s63.35146667 63.35146667 63.35146667 126.70293333L512 815.65013333 512 815.65013333z" p-id="917"></path><path d="M857.15626667 782.88213333l104.8576 0c0-45.8752-8.73813333-80.82773333-48.05973334-93.93493333s-89.56586667-32.768-117.9648-56.79786667c-32.768-28.39893333-24.02986667-28.39893333-15.29173333-37.13706666 10.92266667-13.1072 13.1072-45.8752 13.1072-45.8752 32.768-8.73813333 26.2144-63.35146667 17.47626667-63.35146667s-8.73813333-2.18453333-2.18453334-32.768c6.5536-37.13706667 4.36906667-56.79786667-15.29173333-78.6432-17.47626667-24.02986667-69.90506667-26.2144-69.90506667-26.2144l0 0c0 0-52.4288 2.18453333-69.90506666 26.2144-4.36906667 4.36906667-6.5536 10.92266667-10.92266667 15.29173333 0 0 19.6608 10.92266667 21.84533333 32.768 2.18453333 19.6608 2.18453333 39.3216-8.73813333 67.72053334s-15.29173333 43.69066667 8.73813333 65.536c13.1072 10.92266667 4.36906667 58.9824 4.36906667 58.9824s61.16693333 32.768 126.70293333 54.61333333C863.70986667 691.13173333 857.15626667 782.88213333 857.15626667 782.88213333z" p-id="918"></path><path d="M166.84373333 782.88213333L61.98613333 782.88213333c0-45.8752 8.73813333-80.82773333 48.05973334-93.93493333s89.56586667-32.768 117.9648-56.79786667c32.768-28.39893333 24.02986667-28.39893333 15.29173333-37.13706666-10.92266667-13.1072-13.1072-45.8752-13.1072-45.8752-32.768-8.73813333-26.2144-63.35146667-17.47626667-63.35146667s8.73813333-2.18453333 2.18453334-32.768c-6.5536-37.13706667-4.36906667-56.79786667 15.29173333-78.6432 17.47626667-24.02986667 69.90506667-26.2144 69.90506667-26.2144l0 0c0 0 52.4288 2.18453333 69.90506666 26.2144 4.36906667 4.36906667 6.5536 10.92266667 10.92266667 15.29173333 0 0-19.6608 10.92266667-21.84533333 32.768-2.18453333 19.6608-2.18453333 39.3216 8.73813333 67.72053334s15.29173333 43.69066667-8.73813333 65.536c-13.1072 10.92266667-4.36906667 58.9824-4.36906667 58.9824s-61.16693333 32.768-126.70293333 54.61333333C160.29013333 691.13173333 166.84373333 782.88213333 166.84373333 782.88213333z" p-id="919"></path></svg>